<?xml version="1.0" encoding="UTF-8"?>
<svg width="247px" height="228px" viewBox="0 0 247 228" version="1.1" xmlns="http://www.w3.org/2000/svg" xmlns:xlink="http://www.w3.org/1999/xlink">
    <title>xelpmok-unhappy@3x</title>
    <defs>
        <radialGradient cx="50%" cy="50%" fx="50%" fy="50%" r="52.4189353%" gradientTransform="translate(0.500000,0.500000),scale(1.000000,0.934211),rotate(86.740574),translate(-0.500000,-0.500000)" id="radialGradient-1">
            <stop stop-color="#C66D00" offset="0%"></stop>
            <stop stop-color="#DA8609" stop-opacity="0.65551098" offset="62.5105574%"></stop>
            <stop stop-color="#FFB519" stop-opacity="0" offset="100%"></stop>
        </radialGradient>
        <radialGradient cx="50%" cy="50%" fx="50%" fy="50%" r="51.0586353%" gradientTransform="translate(0.500000,0.500000),scale(1.000000,0.959184),rotate(86.653639),translate(-0.500000,-0.500000)" id="radialGradient-2">
            <stop stop-color="#FFD766" offset="0%"></stop>
            <stop stop-color="#FFB519" stop-opacity="0" offset="100%"></stop>
        </radialGradient>
    </defs>
    <g id="xelpmok-unhappy" stroke="none" stroke-width="1" fill="none" fill-rule="evenodd">
        <ellipse id="Oval-Copy" fill="url(#radialGradient-1)" opacity="0.570359003" cx="120" cy="111" rx="71" ry="76"></ellipse>
        <ellipse id="Oval" fill="url(#radialGradient-2)" cx="120" cy="111" rx="47" ry="49"></ellipse>
        <path d="M114,84 C113.333333,82.6666667 109,82.3333333 101,83 C96.3333333,86.3333333 94,88 94,88 C94,88 92.6666667,89.6666667 90,93 C88,95.6666667 87,97.3333333 87,98 C87,98.6666667 86.6666667,100.333333 86,103 L88,110 L92,114 L97,115 L102,116 L107,114 L112,110 L116,106 L117,103 C117,101.666667 117,101 117,101 C117,101 117,97 117,97 C117,97 116.666667,95 116,91 L115,88 C115,86.6666667 114.666667,85.3333333 114,84 Z" id="Path" stroke="#979797" fill="#FFFFFF"></path>
        <polygon id="Path-2" stroke="#979797" fill="#FFFFFF" points="127 86 122 93 122 108 124 112 128 115 136 115 139 114 145 111 150 106 153 101 153 93 152 89 149 86 145 82 140 81 134 80 132 81 129 82"></polygon>
        <g id="Group-4" transform="translate(121.362766, 127.083440) scale(1, -1) translate(-121.362766, -127.083440) translate(98.862766, 121.583440)">
            <g id="Group-3" transform="translate(0.137234, 0.583440)">
                <path d="M2.778,2.79734266 C5.44466667,3.6365035 6.778,4.05608392 6.778,4.05608392 C6.778,4.05608392 8.11133333,4.19594406 10.778,4.47566434 L15.778,4.47566434 L21.778,4.47566434 L27.778,3.6365035 L31.778,2.79734266 L35.778,2.37776224 L38.778,1.11902098 L40.778,0.699440559 L41.778,1.11902098 L38.778,4.05608392 L34.778,6.15398601 L29.778,7.83230769 L24.778,8.25188811 C18.778,8.53160839 15.778,8.67146853 15.778,8.67146853 C15.778,8.67146853 14.1113333,8.39174825 10.778,7.83230769 L5.778,6.99314685 L3.778,5.31482517 L2.778,2.79734266 Z" id="Path-3" stroke="#979797" fill="#FFFFFF"></path>
                <g id="Group-2" transform="translate(0.207000, 0.322657)" stroke="#000000" stroke-linecap="round" stroke-linejoin="round">
                    <path d="M0.2,0.491328671 C0.146666667,0.624195804 0.122666667,0.692447552 0.128,0.696083916 C0.133333333,0.69972028 0.139333333,0.721118881 0.146,0.76027972 C0.153333333,0.799440559 0.153,0.824615385 0.145,0.835804196 C0.137,0.846993007 0.337,0.997622378 0.745,1.28769231 C1.153,1.57776224 1.65933333,1.86223776 2.264,2.14111888 C2.86866667,2.42 3.409,2.63552448 3.885,2.78769231 C4.36166667,2.93986014 4.97866667,3.07594406 5.736,3.19594406 C6.49333333,3.31622378 7.106,3.39482517 7.574,3.43174825 C8.04266667,3.46895105 9.11333333,3.55944056 10.786,3.70321678 C12.458,3.84699301 13.8383333,3.94643357 14.927,4.00153846 C16.0163333,4.05664336 16.997,4.09034965 17.869,4.10265734 C18.741,4.11468531 19.722,4.08685315 20.812,4.01916084 C21.902,3.95146853 22.855,3.84699301 23.671,3.70573427 C24.487,3.56475524 25.6336667,3.37076923 27.111,3.12377622 C28.589,2.87678322 29.741,2.70769231 30.567,2.6165035 C31.3936667,2.52503497 32.1976667,2.43314685 32.979,2.34083916 C33.7596667,2.24881119 34.449,2.14405594 35.047,2.02657343 C35.645,1.90937063 36.3643333,1.70083916 37.205,1.40097902 C38.045,1.10111888 38.8286667,0.807412587 39.556,0.51986014 C40.2833333,0.232027972 40.718,0.0587412587 40.86,-5.96259638e-15" id="STROKE_b191d603-38c7-4af7-86e9-9bba45999d9b" stroke-width="2.298"></path>
                    <path d="M-1.17239551e-13,2.42937063 C0.176,2.42881119 0.244333333,2.42755245 0.205,2.42559441 C0.165666667,2.42363636 0.146333333,2.41692308 0.147,2.40545455 C0.147,2.39370629 0.214666667,2.40685315 0.35,2.4448951 C0.485333333,2.48265734 0.642333333,2.53006993 0.821,2.58713287 C0.999666667,2.64391608 1.08766667,2.67048951 1.085,2.66685315 C1.08166667,2.66321678 1.07033333,2.65986014 1.051,2.65678322 C1.031,2.65398601 1.05366667,2.65776224 1.119,2.66811189 C1.185,2.67874126 1.282,2.70335664 1.41,2.74195804 C1.53866667,2.78027972 1.60166667,2.8 1.599,2.80111888 C1.59633333,2.80223776 1.60566667,2.81048951 1.627,2.82587413 C1.64766667,2.84097902 1.68933333,2.85146853 1.752,2.85734266 C1.81466667,2.86321678 1.976,2.94615385 2.236,3.10615385 C2.496,3.26587413 2.69966667,3.4227972 2.847,3.57692308 C2.99433333,3.73132867 3.076,3.81986014 3.092,3.84251748 C3.10733333,3.86545455 3.13,3.89426573 3.16,3.92895105 C3.19,3.96335664 3.19133333,3.96321678 3.164,3.92853147 C3.136,3.89412587 3.152,3.92447552 3.212,4.01958042 C3.27133333,4.11468531 3.398,4.27468531 3.592,4.49958042 C3.78533333,4.72447552 3.96433333,4.92405594 4.129,5.09832168 C4.29366667,5.27230769 4.41266667,5.39370629 4.486,5.46251748 C4.55866667,5.53104895 4.61633333,5.59608392 4.659,5.65762238 C4.70166667,5.71916084 4.73166667,5.79006993 4.749,5.87034965 C4.76566667,5.95034965 4.81833333,6.05174825 4.907,6.17454545 C4.995,6.29734266 5.082,6.40461538 5.168,6.49636364 C5.25333333,6.58811189 5.32266667,6.65188811 5.376,6.68769231 C5.42866667,6.72321678 5.471,6.74657343 5.503,6.75776224 C5.535,6.76895105 5.518,6.7634965 5.452,6.7413986 C5.38533333,6.71902098 5.48666667,6.76293706 5.756,6.87314685 C6.02533333,6.98335664 6.29933333,7.08307692 6.578,7.17230769 C6.85666667,7.26153846 7.06233333,7.32909091 7.195,7.37496503 C7.32833333,7.42055944 7.40533333,7.44615385 7.426,7.45174825 C7.44666667,7.45734266 7.49733333,7.47398601 7.578,7.50167832 C7.65933333,7.52909091 7.73066667,7.55202797 7.792,7.57048951 C7.85333333,7.58867133 7.87266667,7.59314685 7.85,7.58391608 C7.82733333,7.57468531 7.87766667,7.59090909 8.001,7.63258741 C8.12366667,7.67454545 8.44966667,7.75020979 8.979,7.85958042 C9.50833333,7.96923077 9.94066667,8.05552448 10.276,8.11846154 C10.6106667,8.18167832 10.8603333,8.22307692 11.025,8.24265734 C11.1896667,8.26251748 11.2676667,8.27440559 11.259,8.27832168 C11.251,8.28223776 11.5046667,8.32629371 12.02,8.41048951 C12.5346667,8.49468531 13.079,8.5593007 13.653,8.60433566 C14.227,8.64937063 14.6986667,8.67314685 15.068,8.67566434 C15.438,8.67818182 15.75,8.67804196 16.004,8.67524476 C16.258,8.67244755 16.5686667,8.66699301 16.936,8.65888112 C17.304,8.65076923 17.6863333,8.64055944 18.083,8.62825175 C18.4803333,8.61594406 18.8393333,8.60321678 19.16,8.59006993 C19.4806667,8.5772028 19.7233333,8.56363636 19.888,8.54937063 C20.052,8.53538462 20.249,8.53748252 20.479,8.55566434 C20.7083333,8.57412587 21.233,8.59230769 22.053,8.61020979 C22.873,8.62839161 23.4786667,8.62965035 23.87,8.61398601 C24.2613333,8.59832168 24.518,8.58783217 24.64,8.58251748 C24.7626667,8.5772028 24.9523333,8.56699301 25.209,8.55188811 C25.4656667,8.53678322 25.731,8.52573427 26.005,8.51874126 C26.279,8.51174825 26.651,8.49566434 27.121,8.47048951 C27.5903333,8.44559441 28.0093333,8.39958042 28.378,8.33244755 C28.746,8.26559441 28.9673333,8.22237762 29.042,8.2027972 C29.116,8.18321678 29.1386667,8.17608392 29.11,8.1813986 C29.0813333,8.18671329 29.0716667,8.18965035 29.081,8.19020979 C29.0896667,8.19104895 29.2206667,8.15006993 29.474,8.06727273 C29.7273333,7.98447552 30.3093333,7.79412587 31.22,7.49622378 C32.1306667,7.19804196 32.8413333,6.95062937 33.352,6.75398601 C33.862,6.55706294 34.203,6.40881119 34.375,6.30923077 C34.547,6.20965035 34.6736667,6.12923077 34.755,6.06797203 C34.8356667,6.00699301 35.119,5.85762238 35.605,5.61986014 C36.091,5.3820979 36.678,5.07132867 37.366,4.68755245 C38.0546667,4.30377622 38.7623333,3.85636364 39.489,3.34531469 C40.2156667,2.83454545 40.8736667,2.23174825 41.463,1.53692308 C42.053,0.842377622 42.399,0.425874126 42.501,0.287412587" id="STROKE_b1989a32-0771-4133-b397-d2a21420cb42" stroke-width="1.953"></path>
                </g>
            </g>
            <path d="M17.4617344,5.84446965 C17.6137344,5.6722944 17.6674011,5.61326288 17.6227344,5.6673751 C17.6387344,5.65784397 17.6447344,5.6298655 17.6407344,5.58343967 C17.6654011,5.67137203 17.6774011,5.71487703 17.6767344,5.71395466 C17.7167344,5.85938125 17.7350677,5.92486934 17.7317344,5.91041892 C17.7157344,6.09519985 17.6667344,6.97575327 17.5847344,8.55207918 C17.6694011,8.56406995 17.7454011,8.57452345 17.8127344,8.58343967" id="STROKE_e941cf56-c54d-47e4-8dfc-aa718e15ffe3" stroke="#000000" stroke-width="1.101" stroke-linecap="round" stroke-linejoin="round"></path>
            <path d="M8.13723441,5.40938341 C8.0880496,5.30588801 8.0544882,5.25990648 8.03655021,5.27143882 C7.9705847,5.1889382 7.90143664,5.09150467 7.82910604,4.97913823 C7.75677543,4.86677178 7.66390294,4.77421732 7.55048855,4.70147484 C7.43765281,4.62873235 7.36358627,4.59014335 7.32828893,4.58570783 C7.2929916,4.58127231 7.27736819,4.58334222 7.2814187,4.59191756 C7.28546922,4.60049289 7.24959324,4.60093644 7.17379076,4.59324821 C7.09856693,4.58526428 7.00222257,4.6537191 6.88475767,4.79861267 C6.76729277,4.94380194 6.60237899,5.32348223 6.39001634,5.93765354 C6.17707504,6.55182485 6.09866866,7.11617051 6.15479721,7.63069053 C6.21092576,8.14521055 6.23783275,8.4627936 6.23551817,8.58343967" id="STROKE_f6b5e04b-799e-47ec-aa02-a9dd58f2b8cb" stroke="#000000" stroke-width="1.245" stroke-linecap="round" stroke-linejoin="round"></path>
            <path d="M28.8473234,5.6168003 C28.8056649,5.62542857 28.8706775,5.61443448 29.0423612,5.58381804 C29.2235128,5.56962314 29.1452452,5.95483374 28.8075584,6.73944984 C28.4705029,7.52378761 28.2773586,8.16728971 28.2281258,8.66995615 C28.1782618,9.17234425 28.1479646,9.47683876 28.1372344,9.58343967" id="STROKE_b80cefc8-4330-4084-87ed-1b93910e7563" stroke="#000000" stroke-width="1.559" stroke-linecap="round" stroke-linejoin="round"></path>
            <path d="M37.0545316,3.61144408 C37.021447,3.62967603 37.0422583,3.62126128 37.1169655,3.58619985 C37.191139,3.55085791 37.0617356,3.85491072 36.7287551,4.49835825 C36.3952409,5.14152529 36.1980674,5.5032191 36.1372344,5.58343967" id="STROKE_87a025a3-c41e-4f78-9577-d81e6e1eb1fe" stroke="#000000" stroke-width="1.042" stroke-linecap="round" stroke-linejoin="round"></path>
        </g>
        <path d="M110,82 L114,84 L116,89 L116,94 L95,94 C92.3738869,95.0202768 90.7072202,95.3536101 90,95 C89.2927798,94.6463899 89.6261131,93.6463899 91,92 L97,86 L101,83 L105,82 L110,82 Z M141,80 L148,85 L153,89 L153,95 L146,94 L122,94 L123,90 L127,86 L129,83 L134,81 L141,80 Z" id="Path-8" fill="#F5DBB3"></path>
        <g id="Group" transform="translate(44.000000, 34.000000)" stroke="#000000" stroke-linecap="round" stroke-linejoin="round">
            <path d="M82.399,51.136 C82.9783333,50.9253333 83.3003333,50.7823333 83.365,50.707 C83.429,50.6316667 83.4753333,50.5536667 83.504,50.473 C83.532,50.3923333 83.543,50.3156667 83.537,50.243 C83.531,50.1703333 83.5246667,50.1336667 83.518,50.133 C83.5113333,50.1323333 83.5066667,50.116 83.504,50.084 C83.5006667,50.052 83.353,50.0206667 83.061,49.99 C82.7696667,49.9593333 82.2736667,50.246 81.573,50.85 C80.8723333,51.4533333 80.3753333,51.927 80.082,52.271 C79.7893333,52.615 79.5423333,52.9443333 79.341,53.259 C79.1403333,53.573 78.7873333,54.2526667 78.282,55.298 C77.7773333,56.3433333 77.3783333,57.54 77.085,58.888 C76.7916667,60.236 76.6146667,61.2836667 76.554,62.031 C76.4933333,62.7783333 76.467,63.423 76.475,63.965 C76.4836667,64.5076667 76.4873333,65.171 76.486,65.955 C76.4846667,66.7396667 76.5383333,67.7556667 76.647,69.003 C76.7556667,70.2496667 76.9376667,71.3083333 77.193,72.179 C77.4483333,73.049 77.805,73.8836667 78.263,74.683 C78.7216667,75.4823333 79.2196667,76.189 79.757,76.803 C80.295,77.417 80.8526667,77.9746667 81.43,78.476 C82.008,78.9773333 82.6846667,79.4 83.46,79.744 C84.2353333,80.088 84.9066667,80.309 85.474,80.407 C86.0413333,80.505 86.934,80.5626667 88.152,80.58 C89.37,80.5973333 90.614,80.5333333 91.884,80.388 C93.154,80.2426667 94.4623333,79.9046667 95.809,79.374 C97.1556667,78.8433333 98.4836667,78.133 99.793,77.243 C101.102333,76.353 102.196667,75.5366667 103.076,74.794 C103.955333,74.0513333 104.878667,73.0546667 105.846,71.804 C106.813333,70.5533333 107.592667,69.3353333 108.184,68.15 C108.774667,66.964 109.249,65.794 109.607,64.64 C109.964333,63.486 110.124333,62.138 110.087,60.596 C110.050333,59.0533333 109.987667,57.8616667 109.899,57.021 C109.811,56.181 109.688,55.469 109.53,54.885 C109.372,54.3016667 109.236667,53.846 109.124,53.518 C109.012,53.19 108.637333,52.5353333 108,51.554 C107.362667,50.572 106.540333,49.6243333 105.533,48.711 C104.525667,47.797 103.413333,46.9876667 102.196,46.283 C100.978667,45.5783333 99.7143333,45.0013333 98.403,44.552 C97.0923333,44.1026667 95.706,43.7713333 94.244,43.558 C92.7826667,43.3453333 91.3553333,43.4303333 89.962,43.813 C88.5693333,44.1963333 87.689,44.4706667 87.321,44.636" id="STROKE_1105ef18-3bb1-42a4-8bb5-0ece0931aa0f" stroke-width="2.142"></path>
            <path d="M69.962,48.395 C69.898,48.2003333 69.561,47.8556667 68.951,47.361 C68.341,46.8663333 67.5853333,46.4466667 66.684,46.102 C65.7826667,45.758 64.7363333,45.586 63.545,45.586 C62.353,45.5866667 61.287,45.6293333 60.347,45.714 C59.407,45.7986667 58.191,46.2123333 56.699,46.955 C55.2063333,47.6976667 53.744,48.6253333 52.312,49.738 C50.8806667,50.8513333 49.6076667,51.9786667 48.493,53.12 C47.379,54.262 46.4693333,55.3106667 45.764,56.266 C45.0586667,57.2213333 44.519,58.096 44.145,58.89 C43.771,59.684 43.37,60.625 42.942,61.713 C42.5133333,62.8003333 42.1913333,64.0396667 41.976,65.431 C41.76,66.8223333 41.709,68.1113333 41.823,69.298 C41.9376667,70.4846667 42.069,71.412 42.217,72.08 C42.365,72.7473333 42.7466667,73.5726667 43.362,74.556 C43.978,75.5393333 44.5173333,76.2933333 44.98,76.818 C45.4426667,77.3433333 46.0106667,77.87 46.684,78.398 C47.3573333,78.9253333 48.2706667,79.3453333 49.424,79.658 C50.578,79.9706667 51.682,80.144 52.736,80.178 C53.79,80.2126667 55.041,80.1446667 56.489,79.974 C57.9363333,79.804 59.1906667,79.5656667 60.252,79.259 C61.3133333,78.9516667 62.3883333,78.569 63.477,78.111 C64.565,77.6523333 65.6406667,77.061 66.704,76.337 C67.7673333,75.6123333 68.641,74.8736667 69.325,74.121 C70.009,73.3683333 70.6486667,72.4943333 71.244,71.499 C71.8386667,70.5036667 72.2656667,69.4856667 72.525,68.445 C72.785,67.4043333 72.955,66.642 73.035,66.158" id="STROKE_3e9435f9-9013-46b8-83ef-719aaa3cea4b" stroke-width="2.121"></path>
            <path d="M90.117,60.8406392 C90.351,60.5718929 90.4966667,60.3632672 90.554,60.2147621 C90.3026667,60.2104507 89.569,61.1000441 88.353,62.8835425 C88.3756667,62.8931235 88.675,62.5973109 89.251,61.9961048 C89.827,61.3953777 90.521,60.7613567 91.333,60.0940418 C91.403,59.9603872 90.3603333,61.0782474 88.205,63.4476224 C88.1783333,63.4567243 89.346,62.5024593 91.708,60.5848272 C91.7033333,60.5618329 91.374,60.8526155 90.72,61.457175 C90.0666667,62.0622135 89.5483333,62.6255748 89.165,63.1472589 C88.7816667,63.6689429 88.5643333,64.0636791 88.513,64.3314673 C88.7283333,64.3123053 88.839,64.2952991 88.845,64.2804486 C89.0223333,64.1784112 90.4706667,62.9103693 93.19,60.4763227 C93.1473333,60.4552445 92.782,60.7809977 92.094,61.4535821 C91.406,62.1256874 90.8646667,62.6849768 90.47,63.1314502 C90.0746667,63.5779237 89.8233333,63.9113416 89.716,64.131704 C89.608,64.3520664 89.5586667,64.549674 89.568,64.7245268 C89.72,64.7911145 91.4416667,63.3149259 94.733,60.2959608 C94.635,60.3405124 93.4343333,61.7975391 91.131,64.6670409 C91.243,64.7307544 92.733,63.5623546 95.601,61.1618414 C95.561,61.2677112 95.5396667,61.319688 95.537,61.3177718 C95.5336667,61.3153765 94.6166667,62.3894038 92.786,64.5398535 C92.8733333,64.5115896 94.024,63.6126547 96.238,61.8430487 C96.2833333,61.8219706 96.0286667,62.151077 95.474,62.8303681 C94.9193333,63.5091802 94.4593333,64.260089 94.094,65.0830947 C94.226,65.0893224 94.5643333,64.9753088 95.109,64.741054 C95.6536667,64.5067991 96.008,64.3503897 96.172,64.2718257" id="STROKE_2c5e809c-9549-4b3d-b60c-689b69073cf2" stroke-width="2.238"></path>
            <path d="M57.965,62.1183535 C57.9896667,62.1340262 58.3293333,61.6129084 58.984,60.555 C58.7553333,60.6172299 58.6396667,60.6577946 58.637,60.676694 C58.5856667,60.7154149 58.1743333,61.0781922 57.403,61.7650259 C56.631,62.4513987 55.9726667,63.2202838 55.428,64.0716811 C55.618,64.073064 55.7253333,64.0792869 55.75,64.09035 C55.774,64.1014131 56.2663333,63.7626059 57.227,63.0739283 C58.1876667,62.3847897 59.111,61.6320383 59.997,60.8156742 C59.9263333,60.7986186 59.243,61.4764636 57.947,62.8492092 C58.015,62.9178925 59.0713333,62.2156165 61.116,60.7423812 C61.2126667,60.7207159 60.4093333,61.6825137 58.706,63.6277744 C58.8226667,63.6185552 59.131,63.4074345 59.631,62.9944123 C60.131,62.5813901 60.516,62.2561812 60.786,62.0187857 C61.0553333,61.7818511 61.2936667,61.5730351 61.501,61.3923379 C61.4696667,61.4001743 60.6226667,62.1803529 58.96,63.7328738 C58.9346667,63.8070887 60.011,63.2380308 62.189,62.0257001 C62.2096667,62.038607 62.1913333,62.1146658 62.134,62.2538764 C62.0773333,62.393087 61.963,62.5747061 61.791,62.7987338 C61.6183333,63.0232224 61.474,63.2013843 61.358,63.3332195 C61.242,63.4645938 61.136,63.5826001 61.04,63.6872385 C60.9433333,63.791877 60.8196667,63.9638159 60.669,64.2030553 C60.7603333,64.2035163 61.5633333,63.7049856 63.078,62.7074633 C63.0433333,62.7046975 62.6203333,63.2956511 61.809,64.4803241 C61.8496667,64.5107476 62.016,64.5356396 62.308,64.555" id="STROKE_037425e9-736e-435a-8e7d-62aef6c245af" stroke-width="2.434"></path>
            <path d="M90.93,61.684 C90.706,61.8626667 90.469,62.3313333 90.219,63.09 C90.2476667,63.1173333 90.2953333,63.1436667 90.362,63.169 C90.4286667,63.1943333 90.5296667,63.2276667 90.665,63.269" id="STROKE_a4cca889-cc30-4f98-896a-31f45cfa8837" stroke-width="2.943"></path>
            <path d="M83.628,34.665 C83.568,34.3983333 83.5306667,34.2563333 83.516,34.239 L83.393,33.922 C83.2836667,33.758 83.2756667,33.2313333 83.369,32.342 C83.4623333,31.4526667 83.5923333,30.5983333 83.759,29.779 C83.9256667,28.959 84.091,28.039 84.255,27.019 C84.4196667,25.999 84.643,24.9976667 84.925,24.015 C85.2063333,23.0316667 85.6776667,22.0243333 86.339,20.993 C87.0003333,19.9616667 88.0033333,18.8573333 89.348,17.68 C90.692,16.5026667 91.8756667,15.4476667 92.899,14.515 C93.9223333,13.583 94.7676667,12.684 95.435,11.818 C96.1016667,10.952 96.6303333,10.0523333 97.021,9.119 C97.4123333,8.18633333 97.8086667,7.00233333 98.21,5.567 C98.6113333,4.13233333 99.0753333,2.912 99.602,1.906 C100.128667,0.899333333 100.458333,0.264 100.591,-1.42108547e-14" id="STROKE_c0d97629-50c4-4f2f-b1fc-b6c38caba41c" stroke-width="2.271"></path>
            <path d="M93.285,35.261 L93.164,35.221 C93.0646667,35.1903333 93.2116667,34.5493333 93.605,33.298 C93.999,32.0473333 94.6753333,30.6506667 95.634,29.108 C96.5933333,27.5653333 97.457,26.2643333 98.225,25.205 C98.993,24.1463333 99.9466667,22.9626667 101.086,21.654 C102.226,20.346 103.140333,19.33 103.829,18.606 C104.518333,17.882 105.695333,16.6983333 107.36,15.055 C109.025333,13.4123333 110.460333,12.0063333 111.665,10.837 C112.869,9.66833333 114.055667,7.70933333 115.225,4.96 C116.394333,2.21066667 117.027333,0.717333333 117.124,0.48" id="STROKE_43eb40c3-49b0-4798-8989-ecb65e014b1f" stroke-width="2.302"></path>
            <path d="M71.11,34.955 C70.9813333,34.8376667 70.915,34.7773333 70.911,34.774 C70.907,34.7713333 70.853,34.695 70.749,34.545 C70.6443333,34.395 70.589,34.214 70.583,34.002 C70.577,33.79 70.6476667,33.345 70.795,32.667 C70.943,31.989 71.0546667,31.2456667 71.13,30.437 C71.206,29.629 71.2006667,28.7726667 71.114,27.868 C71.028,26.9633333 70.9603333,25.138 70.911,22.392 C70.8623333,19.6466667 70.805,17.5043333 70.739,15.965 C70.673,14.4263333 70.8013333,12.7626667 71.124,10.974 C71.446,9.18533333 71.932,7.329 72.582,5.405 C73.232,3.48033333 73.613,2.33633333 73.725,1.973" id="STROKE_65bcb62d-3e67-42c5-83b1-21a3be7ca924" stroke-width="2.372"></path>
            <path d="M60.454,39.758 C60.442,39.6373333 60.13,39.0336667 59.518,37.947 C58.9066667,36.8596667 58.439,35.8176667 58.115,34.821 C57.7916667,33.8243333 57.5663333,33.0016667 57.439,32.353 C57.3116667,31.7036667 57.202,31.2076667 57.11,30.865 C57.018,30.5223333 56.827,29.9703333 56.537,29.209 C56.247,28.4476667 56.041,27.9086667 55.919,27.592 C55.7976667,27.2753333 55.564,26.453 55.218,25.125 C54.8713333,23.7963333 54.5303333,22.094 54.195,20.018 C53.859,17.9426667 53.5903333,16.2643333 53.389,14.983 C53.1883333,13.7016667 52.6856667,12.0946667 51.881,10.162 C51.077,8.22933333 50.4086667,6.80666667 49.876,5.894 C49.344,4.98066667 48.9696667,4.36933333 48.753,4.06" id="STROKE_6fb225dc-e895-4106-bbea-adb4be14b676" stroke-width="3.064"></path>
            <path d="M49.609,42.255 C49.595,42.2163333 49.3343333,41.9913333 48.827,41.58 C48.319,41.168 47.7193333,40.6023333 47.028,39.883 C46.336,39.1636667 45.683,38.5503333 45.069,38.043 C44.455,37.535 43.8256667,37.0413333 43.181,36.562 C42.5363333,36.0826667 41.8396667,35.5846667 41.091,35.068 C40.3416667,34.5513333 39.351,33.938 38.119,33.228 C36.887,32.518 35.7856667,31.923 34.815,31.443 C33.8443333,30.9623333 33.0656667,30.5753333 32.479,30.282 C31.8916667,29.9886667 30.9526667,29.5483333 29.662,28.961 C28.3713333,28.3736667 26.5053333,27.6976667 24.064,26.933 C21.6233333,26.1676667 20.2283333,25.7206667 19.879,25.592" id="STROKE_9fbd3400-004c-47cc-a273-4cb77f19a8ef" stroke-width="2.614"></path>
            <path d="M41.886,49.409 C41.7566667,49.459 41.242,49.3313333 40.342,49.026 C39.442,48.7213333 38.1543333,48.1306667 36.479,47.254 C34.8036667,46.378 33.4403333,45.652 32.389,45.076 C31.3376667,44.5006667 30.4606667,44.056 29.758,43.742 C29.0553333,43.428 28.0723333,43.0096667 26.809,42.487 C25.5456667,41.965 24.3876667,41.482 23.335,41.038 C22.2823333,40.594 21.0743333,40.2256667 19.711,39.933 C18.3476667,39.6403333 17.124,39.4816667 16.04,39.457 C14.9566667,39.433 13.8203333,39.456 12.631,39.526 C11.441,39.596 10.202,39.8596667 8.914,40.317 C7.62533333,40.7736667 6.658,41.189 6.012,41.563 C5.366,41.937 4.86,42.24 4.494,42.472" id="STROKE_b772fbf8-c530-47e1-9411-1f13538f4362" stroke-width="2.454"></path>
            <path d="M34.975,62.515 C34.939,62.4583333 34.8713333,62.3923333 34.772,62.317 C34.6726667,62.241 34.5686667,62.166 34.46,62.092 C34.3506667,62.018 34.2753333,61.9706667 34.234,61.95 C34.1926667,61.93 33.9293333,61.801 33.444,61.563 C32.9586667,61.3256667 32.1006667,61.1393333 30.87,61.004 C29.6393333,60.8686667 28.5886667,60.826 27.718,60.876 C26.8473333,60.926 25.8573333,61.058 24.748,61.272 C23.638,61.4866667 22.7606667,61.679 22.116,61.849 C21.472,62.019 20.3313333,62.482 18.694,63.238 C17.056,63.9933333 15.3806667,64.9303333 13.668,66.049 C11.9553333,67.1683333 10.3286667,68.4136667 8.788,69.785 C7.24733333,71.1563333 5.994,72.3466667 5.028,73.356 C4.062,74.366 2.386,76.4216667 5.68434189e-14,79.523" id="STROKE_fa29391e-60ca-4d6f-a3ad-bd729a72fe94" stroke-width="2.075"></path>
            <path d="M31.949,78.341 C31.6443333,78.1663333 31.3113333,78.0756667 30.95,78.0689044 C30.5886667,78.063 30.055,78.3393333 29.349,78.898 C28.6423333,79.4573333 28.0193333,80.0133333 27.48,80.566 C26.94,81.1193333 26.1386667,81.9293333 25.076,82.996 C24.0126667,84.0626667 22.63,85.8813333 20.928,88.452 C19.2266667,91.0226667 17.91,92.9876667 16.978,94.347 C16.046,95.7063333 15.2383333,97.122 14.555,98.594 C13.871,100.066667 13.3366667,101.416667 12.952,102.644 C12.5673333,103.872 12.2403333,105.199667 11.971,106.627 C11.7023333,108.055 11.4873333,109.259333 11.326,110.24 C11.1646667,111.22 11.0263333,112.034333 10.911,112.683" id="STROKE_f79a80a2-f6af-4a87-9550-751acf05a2ef" stroke-width="2.078"></path>
            <path d="M37.687,92.401 C37.4063333,92.485 37.175,92.564 36.993,92.638 C36.8116667,92.712 36.5826667,92.9886667 36.306,93.468 C36.03,93.9473333 35.7003333,94.7296667 35.317,95.815 C34.9336667,96.9003333 34.6066667,97.79 34.336,98.484 C34.066,99.178 33.766,99.9463333 33.436,100.789 C33.106,101.631667 32.7056667,102.638667 32.235,103.81 C31.7636667,104.980667 31.4066667,106.039 31.164,106.985 C30.9213333,107.930333 30.808,108.902333 30.824,109.901 C30.84,110.899 30.8956667,111.745667 30.991,112.441 C31.087,113.135667 31.361,113.904667 31.813,114.748 C32.2643333,115.591333 32.784,116.389667 33.372,117.143 C33.9593333,117.897 34.402,118.482333 34.7,118.899 C34.998,119.315667 35.2423333,119.867333 35.433,120.554 C35.6236667,121.240667 35.5923333,122.283667 35.339,123.683 C35.085,125.082333 34.6066667,126.599333 33.904,128.234 C33.2006667,129.868667 32.6623333,131.055 32.289,131.793 C31.9163333,132.531667 31.5963333,133.128333 31.329,133.583 C31.0616667,134.037667 30.7003333,134.649667 30.245,135.419 C29.789,136.187667 29.4123333,136.795 29.115,137.241 C28.8176667,137.687 28.573,138.04 28.381,138.3" id="STROKE_49107c76-d2dd-4e43-b03f-7116c73fa165" stroke-width="2.066"></path>
            <path d="M47.456,99.64 C47.4393333,99.6506667 47.1546667,99.7103333 46.602,99.819 C46.5273333,100.006333 46.6236667,101.161 46.891,103.283 C47.159,105.404333 47.3983333,107.986667 47.609,111.03 C47.8203333,114.073333 47.9673333,116.558667 48.05,118.486 C48.1326667,120.413333 48.172,122.170333 48.168,123.757 C48.164,125.343667 48.0696667,126.708333 47.885,127.851 C47.7003333,128.994333 47.5263333,129.927333 47.363,130.65 C47.199,131.372667 46.4096667,133.037 44.995,135.643 C43.5803333,138.249 42.3083333,140.293 41.179,141.775 C40.0496667,143.257667 39.326,144.186667 39.008,144.562" id="STROKE_64882939-2cd6-4d36-b628-2fd570b16fa6" stroke-width="2.105"></path>
            <path d="M109.036,95.099 L108.901,95.272 C108.751,95.4893333 108.867,96.1213333 109.249,97.168 C109.631,98.214 109.977667,99.302 110.289,100.432 C110.599667,101.562 110.8,102.546 110.89,103.384 C110.98,104.222 110.995667,105.011333 110.937,105.752 C110.878333,106.493333 110.622,107.953 110.168,110.131 C109.714,112.309 109.123,115.143333 108.395,118.634 C107.667667,122.125333 107.216,124.565 107.04,125.953 C106.864,127.341 106.817667,128.936333 106.901,130.739 C106.983667,132.541 107.117333,134.086 107.302,135.374 C107.486667,136.662 107.84,138.107333 108.362,139.71 C108.883333,141.312667 109.216333,142.295333 109.361,142.658" id="STROKE_81c99923-2610-4716-a823-ca8e42ca215f" stroke-width="2.189"></path>
            <path d="M110.882,86.493 C111.354667,86.2623333 112.815667,87.3343333 115.265,89.709 C117.714333,92.083 119.611,93.9806667 120.955,95.402 C122.298333,96.824 123.324667,97.883 124.034,98.579 C124.742667,99.2756667 125.435,99.9593333 126.111,100.63 C126.786333,101.301333 127.615333,102.280667 128.598,103.568 C129.58,104.854667 130.888667,107.263 132.524,110.793 C134.158667,114.323667 135.039333,116.222667 135.166,116.49" id="STROKE_f5f885a9-fc60-4964-bf07-897120dc15ff" stroke-width="2.077"></path>
            <path d="M110.088,78.766 C110.093333,78.7586667 109.988,78.672 109.772,78.506 C109.815333,78.3606667 110.256,78.1086667 111.094,77.75 C111.932,77.3913333 112.827,77.1483333 113.779,77.021 C114.731,76.8936667 116.053333,77.066 117.746,77.538 C119.438,78.0106667 121.035333,78.5636667 122.538,79.197 C124.040667,79.8303333 125.268667,80.3293333 126.222,80.694 C127.175333,81.058 128.563,81.4393333 130.385,81.838 C132.207,82.236 133.764,82.6066667 135.056,82.95 C136.348,83.2933333 137.411667,83.5766667 138.247,83.8 C139.083,84.0233333 140.133667,84.3163333 141.399,84.679 C142.663667,85.0423333 143.451,85.278 143.761,85.386" id="STROKE_7f661e9a-b50b-49c3-9ed1-1b6f122a314a" stroke-width="2.299"></path>
            <path d="M122.083,61.528 C122.144333,61.4386667 122.392,61.2116667 122.826,60.847 C123.259333,60.4823333 124.255667,60.202 125.815,60.006 C127.374333,59.81 128.628,59.7396667 129.576,59.795 C130.523333,59.851 131.772667,59.892 133.324,59.918 C134.874667,59.944 136.568,59.9326667 138.404,59.884 C140.24,59.8353333 141.605,59.7883333 142.499,59.743 C143.393667,59.6976667 144.260333,59.633 145.099,59.549 C145.937667,59.465 146.650333,59.4013333 147.237,59.358 C147.824333,59.3153333 148.813,59.194 150.203,58.994 C151.593,58.794 152.717333,58.5336667 153.576,58.213 C154.435333,57.8916667 155.037667,57.65 155.383,57.488" id="STROKE_a51adde4-35b6-4fca-9dd5-64ea13f8eec7" stroke-width="2.318"></path>
            <path d="M118.487,45.022 C118.393,44.8346667 118.343,44.7343333 118.337,44.721 C118.330333,44.707 118.406667,44.506 118.566,44.118 C118.724667,43.73 119.143,43.234 119.821,42.63 C120.499,42.026 121.13,41.5613333 121.714,41.236 C122.298667,40.9113333 123.022333,40.5696667 123.885,40.211 C124.747,39.8523333 126.408667,39.278 128.87,38.488 C131.330667,37.6973333 133.673667,37.0136667 135.899,36.437 C138.125,35.8596667 140.138,35.2553333 141.938,34.624 C143.738,33.9926667 144.804333,33.6036667 145.137,33.457" id="STROKE_7365acac-3d5a-4efb-88be-f59bb5e9348f" stroke-width="2.219"></path>
            <path d="M110.38,35.455 C110.416,35.1796667 110.666667,34.6173333 111.132,33.768 C111.598,32.9186667 112.124667,32.1916667 112.712,31.587 C113.3,30.9816667 114.069667,30.2023333 115.021,29.249 C115.972333,28.295 118.612,26.312 122.94,23.3 C127.268,20.2886667 129.667333,18.6 130.138,18.234" id="STROKE_a2a9c29d-67cd-4659-84d5-5cb3fd46ba19" stroke-width="2.619"></path>
            <path d="M117.631,70.632 C117.313,70.6726667 117.183,70.6893333 117.241,70.682 C116.826333,70.7146667 116.665333,70.7356667 116.758,70.745 C116.850667,70.755 116.826333,70.7283333 116.685,70.665 C116.543667,70.601 116.353,70.4893333 116.113,70.33 C115.873,70.1706667 115.663333,70.0723333 115.484,70.035 C115.305333,69.997 115.163,69.9653333 115.057,69.94 C114.951667,69.914 114.567,70.0163333 113.903,70.247 C113.917667,70.3943333 114.218,70.4093333 114.804,70.292 C115.39,70.1746667 115.972333,70.1236667 116.551,70.139 C117.129667,70.1536667 117.911667,70.497 118.897,71.169 C119.882333,71.8403333 120.910333,72.448 121.981,72.992 C123.051667,73.5366667 124.198667,73.9456667 125.422,74.219 C126.645333,74.493 127.876333,74.7626667 129.115,75.028 C130.353,75.2926667 131.546333,75.5343333 132.695,75.753 C133.843667,75.9716667 134.987667,76.0473333 136.127,75.98 C137.266333,75.9126667 138.366333,75.7176667 139.427,75.395 C140.488333,75.0716667 141.393,74.68 142.141,74.22 C142.889667,73.76 143.389333,73.4373333 143.64,73.252" id="STROKE_a2c28f07-b424-438a-be85-d15f4384968c" stroke-width="0.914"></path>
            <path d="M117.794,56.069 C117.698667,56.1983333 117.487,56.3243333 117.159,56.447 C117.109,56.5396667 117.634667,55.9973333 118.736,54.82 C119.837333,53.642 120.793,52.6573333 121.603,51.866 C122.413667,51.0746667 123.242,50.4343333 124.088,49.945 C124.933333,49.4556667 125.851333,49.1 126.842,48.878 C127.832667,48.656 129.095667,48.5876667 130.631,48.673 C132.165667,48.7583333 133.759667,48.7703333 135.413,48.709 C137.065667,48.6476667 138.53,48.515 139.806,48.311 C141.082,48.107 142.214667,47.806 143.204,47.408 C144.192667,47.01 144.915667,46.647 145.373,46.319 C145.829667,45.9903333 146.18,45.7156667 146.424,45.495" id="STROKE_d081eb62-b5f3-479a-ac39-82526b76ab6f" stroke-width="0.983"></path>
            <path d="M111.522,44.439 C111.544,44.4623333 111.531,44.4203333 111.483,44.313 C111.435667,44.2056667 111.478333,43.9656667 111.611,43.593 C111.744333,43.2203333 112.083667,42.6583333 112.629,41.907 C113.174333,41.1556667 113.599333,40.5923333 113.904,40.217 C114.208667,39.8416667 114.903667,39.134 115.989,38.094 C117.074333,37.054 117.973667,36.2093333 118.687,35.56 C119.399667,34.9113333 120.717667,34.147 122.641,33.267 C124.563667,32.387 126.217667,31.6283333 127.603,30.991 C128.987667,30.3536667 130.192333,29.68 131.217,28.97 C132.241667,28.26 132.869667,27.8093333 133.101,27.618" id="STROKE_b0c26cdb-849d-4e03-bb74-58533409f1bb" stroke-width="1.048"></path>
            <path d="M103.999,36.836 C104.033,36.956 104.026333,36.8686667 103.979,36.574 C103.931667,36.2793333 103.884333,35.8056667 103.837,35.153 C103.789667,34.5003333 103.864,33.6286667 104.06,32.538 C104.256667,31.4473333 104.431333,30.5786667 104.584,29.932 C104.737333,29.2846667 105.150667,28.3423333 105.824,27.105 C106.496667,25.867 107.362667,24.6493333 108.422,23.452 C109.481333,22.2546667 110.268333,21.3886667 110.783,20.854 C111.298333,20.3193333 111.774667,19.8623333 112.212,19.483 C112.648667,19.1036667 113.162667,18.6696667 113.754,18.181 C114.345333,17.6916667 114.977667,17.132 115.651,16.502 C116.324333,15.872 116.766667,15.4303333 116.978,15.177" id="STROKE_e81b06bf-1124-409d-a96d-d5d796161823" stroke-width="1.055"></path>
            <path d="M87.219,36.983 C87.221,37.0003333 87.2256667,37.0363333 87.233,37.091 C87.2263333,36.9563333 87.6846667,35.9276667 88.608,34.005 C89.532,32.0816667 90.4366667,30.0986667 91.322,28.056 C92.208,26.0126667 92.8596667,24.448 93.277,23.362 C93.695,22.2753333 94.0796667,21.4433333 94.431,20.866 C94.7823333,20.2886667 95.3826667,19.5456667 96.232,18.637 C97.0813333,17.7283333 97.594,17.1816667 97.77,16.997" id="STROKE_8c3616d5-0b2f-4879-84be-c8582d11fae4" stroke-width="0.901"></path>
            <path d="M76.803,35.397 C76.8163333,35.4316667 76.8323333,35.4853333 76.851,35.558 C76.587,35.7733333 76.3716667,35.5566667 76.205,34.908 C76.039,34.26 75.9906667,33.539 76.06,32.745 C76.13,31.9516667 76.206,31.2583333 76.288,30.665 C76.37,30.0716667 76.7646667,28.6366667 77.472,26.36 C78.1793333,24.0833333 78.7173333,22.3363333 79.086,21.119 C79.4546667,19.901 79.72,18.9413333 79.882,18.24 C80.044,17.5386667 80.3863333,15.9766667 80.909,13.554 C81.431,11.1306667 81.7073333,9.79433333 81.738,9.545" id="STROKE_40d52e4d-858e-40ee-8299-e092d7ca98fb" stroke-width="1.097"></path>
            <path d="M65.581,37.722 C65.5416667,37.7286667 65.3766667,37.7453333 65.086,37.772 C64.8913333,37.5433333 64.6796667,35.9696667 64.451,33.051 C64.2216667,30.1323333 64.0076667,27.8606667 63.809,26.236 C63.6103333,24.6113333 63.3283333,22.892 62.963,21.078 C62.5983333,19.2646667 62.278,17.7066667 62.002,16.404 C61.726,15.102 61.6093333,14.062 61.652,13.284 C61.6946667,12.5053333 61.746,12.0303333 61.806,11.859" id="STROKE_ce28e50a-2e37-473d-8f47-3737b435dab0" stroke-width="1.104"></path>
            <path d="M54.553,41.569 C54.5216667,41.4383333 54.4936667,41.363 54.469,41.343 C54.4436667,41.323 54.3993333,41.28 54.336,41.214 C54.272,41.1473333 54.168,41.04 54.024,40.892 C53.88,40.744 53.713,40.5853333 53.523,40.416 C53.333,40.2473333 52.9496667,39.8236667 52.373,39.145 C51.7963333,38.467 51.149,37.3813333 50.431,35.888 C49.713,34.3946667 48.9336667,32.8246667 48.093,31.178 C47.2516667,29.5306667 46.3736667,28.024 45.459,26.658 C44.5443333,25.292 43.393,23.9016667 42.005,22.487 C40.6163333,21.073 39.8153333,20.276 39.602,20.096" id="STROKE_da79130f-9578-442a-9e4c-f3cefcb5c020" stroke-width="1.118"></path>
            <path d="M43.87,49.397 C43.9686667,49.4643333 43.8453333,49.3496667 43.5,49.053 C43.1553333,48.7563333 42.888,48.5186667 42.698,48.34 C42.508,48.1613333 42.169,47.6753333 41.681,46.882 C41.1923333,46.088 40.553,45.3116667 39.763,44.553 C38.973,43.7936667 37.9513333,43.0193333 36.698,42.23 C35.4446667,41.44 34.4833333,40.8406667 33.814,40.432 C33.1446667,40.0226667 32.2673333,39.5596667 31.182,39.043 C30.096,38.527 28.6523333,38.256 26.851,38.23 C25.0496667,38.204 24.0396667,38.191 23.821,38.191" id="STROKE_9b362f6b-f435-4205-ac5b-6e4823de2c88" stroke-width="1.087"></path>
            <path d="M36.424,59.995 C36.49,59.8776667 35.978,59.4733333 34.888,58.782 C33.7986667,58.09 32.8086667,57.5533333 31.918,57.172 C31.028,56.79 29.9856667,56.5243333 28.791,56.375 C27.5963333,56.2256667 26.0713333,56.1523333 24.216,56.155 C22.3606667,56.1576667 20.5643333,56.0156667 18.827,55.729 C17.0896667,55.4423333 15.2183333,55.4003333 13.213,55.603 C11.2076667,55.8056667 10.0656667,55.9526667 9.787,56.044" id="STROKE_98d8912a-27c9-4b76-a1a0-366d65e106d4" stroke-width="1.31"></path>
            <path d="M32.083,75.116 C32.141,75.296 31.651,75.2416667 30.613,74.953 C29.5743333,74.6643333 28.7493333,74.3916667 28.138,74.135 C27.526,73.8783333 26.7723333,73.687 25.877,73.561 C24.9816667,73.435 24.0136667,73.6243333 22.973,74.129 C21.9323333,74.6336667 20.629,75.694 19.063,77.31 C17.497,78.9266667 16.182,80.2836667 15.118,81.381 C14.0546667,82.4783333 13.285,83.3066667 12.809,83.866 C12.333,84.4253333 11.8433333,84.9766667 11.34,85.52 C10.8366667,86.0633333 10.2856667,86.8576667 9.687,87.903 C9.08833333,88.9483333 8.61066667,89.857 8.254,90.629 C7.898,91.4003333 7.596,92.2286667 7.348,93.114 C7.1,93.9993333 6.917,94.581 6.799,94.859" id="STROKE_66fc9d39-3f35-423e-a6d3-c08ff15fbb62" stroke-width="0.997"></path>
            <path d="M35.594,86.903 C35.4833333,86.8823333 35.0536667,86.9953333 34.305,87.242 C33.5563333,87.4886667 32.7243333,88.032 31.809,88.872 C30.8936667,89.712 29.9076667,90.9313333 28.851,92.53 C27.7936667,94.128 26.9503333,95.5666667 26.321,96.846 C25.6923333,98.1253333 25.162,99.3753333 24.73,100.596 C24.2986667,101.816667 23.9423333,102.982333 23.661,104.093 C23.379,105.204333 23.041,106.394667 22.647,107.664 C22.2523333,108.933333 21.914,110.558 21.632,112.538 C21.35,114.518 21.187,115.691667 21.143,116.059" id="STROKE_0d332e4f-20aa-4b8f-8398-cd1f38c3ac0d" stroke-width="0.999"></path>
            <path d="M45.521,97.9 C45.3836667,97.828 45.0556667,97.757 44.537,97.687 C44.0176667,97.6163333 43.5446667,97.611 43.118,97.671 C42.6906667,97.731 42.4123333,97.8183333 42.283,97.933 C42.1536667,98.047 42.0403333,98.1603333 41.943,98.273 C41.8456667,98.3856667 41.5006667,99.042 40.908,100.242 C40.3153333,101.441333 39.7206667,102.629333 39.124,103.806 C38.528,104.983333 38.105,105.98 37.855,106.796 C37.605,107.612667 37.4426667,108.44 37.368,109.278 C37.2933333,110.116667 37.4706667,111.039333 37.9,112.046 C38.3286667,113.052 38.742,113.820667 39.14,114.352 C39.538,114.883333 39.9893333,115.538333 40.494,116.317 C40.998,117.095667 41.4523333,117.982333 41.857,118.977 C42.261,119.971667 42.4486667,121.273 42.42,122.881 C42.392,124.489667 42.0283333,126.858333 41.329,129.987 C40.6303333,133.116333 40.2186667,134.901333 40.094,135.342" id="STROKE_6de269ee-f1e0-4a10-805b-356b44156c4a" stroke-width="0.996"></path>
            <path d="M110.008,93.157 C110.260667,93.093 110.373333,93.0463333 110.346,93.017 C110.275333,92.9723333 110.477,92.886 110.951,92.758 C111.424333,92.6306667 111.841333,92.6463333 112.202,92.805 C112.562667,92.9636667 112.926333,93.1673333 113.293,93.416 C113.659,93.6646667 114.071333,94.1223333 114.53,94.789 C114.988667,95.455 115.380333,96.0846667 115.705,96.678 C116.029667,97.2713333 116.482,98.323 117.062,99.833 C117.642,101.343 118.073333,102.523333 118.356,103.374 C118.638667,104.224 119.012333,105.297 119.477,106.593 C119.942333,107.889 120.541333,110.473 121.274,114.345 C122.006667,118.217667 122.418333,120.292667 122.509,120.57" id="STROKE_704f71a4-0cc9-4f8d-9fbf-ed3079347954" stroke-width="1.042"></path>
            <path d="M115.58,85.352 C115.927333,85.2486667 116.643333,85.5006667 117.728,86.108 C118.812,86.7146667 119.927,87.267 121.073,87.765 C122.218333,88.263 123.521333,88.8393333 124.982,89.494 C126.442667,90.148 127.638667,90.6316667 128.57,90.945 C129.502,91.259 130.507667,91.581 131.587,91.911 C132.665667,92.2416667 133.741,92.684 134.813,93.238 C135.885,93.7926667 136.730333,94.4446667 137.349,95.194 C137.967667,95.9433333 138.338,96.405 138.46,96.579" id="STROKE_24aea5f4-1849-4b9c-8bc3-8fd18272b949" stroke-width="0.898"></path>
            <path d="M59.184,62.888 L59.078,62.9 C58.9766667,62.9726667 59.0126667,62.1973333 59.186,60.574 C58.916,60.642 58.4293333,62.1503333 57.726,65.099 L57.879,65.192 C58.081,65.316 58.849,63.8386667 60.183,60.76 C60.1403333,60.71 59.9743333,60.8566667 59.685,61.2 C59.3956667,61.5433333 59.0826667,62.7376667 58.746,64.783 C58.9606667,64.7856667 59.0726667,64.7736667 59.082,64.747 C59.272,64.5756667 60.1186667,63.2186667 61.622,60.676 C61.6566667,60.6033333 61.2623333,61.719 60.439,64.023 C60.383,64.219 61.0136667,63.579 62.331,62.103 L62.582,61.991" id="STROKE_28958b21-a5ff-4cd3-ae29-9ac73240d952" stroke-width="2.141"></path>
            <path d="M56.271,114.176 C56.291,114.173333 56.2203333,114.182333 56.059,114.203 C56.5283333,114.560333 57.056,115.480333 57.642,116.963 C58.228,118.445 58.665,119.65 58.953,120.578 C59.241,121.506 59.2586667,122.621 59.006,123.923 C58.7533333,125.225 58.5336667,126.338 58.347,127.262 C58.1596667,128.185333 58.048,128.996333 58.012,129.695 C57.9753333,130.393667 58.04,130.914667 58.206,131.258 C58.3726667,131.600667 58.5076667,131.824 58.611,131.928" id="STROKE_6ce9d14a-4d47-4257-9218-11fab1e05554" stroke-width="0.981"></path>
            <path d="M61.842,120.292 C61.8346667,120.264667 61.913,120.773667 62.077,121.819 C62.2416667,122.863667 62.3476667,123.885333 62.395,124.884 C62.4416667,125.882667 62.1973333,127.302333 61.662,129.143 C61.126,130.983667 60.6233333,132.744667 60.154,134.426 C59.6853333,136.106667 59.4276667,137.018 59.381,137.16" id="STROKE_84ee0099-eb12-4abd-adc9-00f434c85aee" stroke-width="0.948"></path>
            <path d="M65.478,121.272 C65.4753333,121.25 65.482,121.175333 65.498,121.048 C65.514,120.920667 65.5223333,120.856 65.523,120.854 C65.5236667,120.852 65.534,120.835 65.554,120.803 C65.5733333,120.770333 65.6066667,120.717 65.654,120.643 C65.7013333,120.569 65.7183333,120.551333 65.705,120.59 C65.8503333,120.68 66.0053333,121.234 66.17,122.252 C66.3346667,123.269333 66.312,124.537333 66.102,126.056 C65.892,127.574 65.607,129.069667 65.247,130.543 C64.887,132.015667 64.4143333,133.737 63.829,135.707 C63.2436667,137.677667 62.919,138.702667 62.855,138.782" id="STROKE_92600888-2ac2-4b0d-be06-e62d3491ce10" stroke-width="1.218"></path>
            <path d="M69.351,118.575 C69.6443333,118.651667 69.762,118.709 69.704,118.747 C69.7706667,118.861667 69.9776667,119.357667 70.325,120.235 C70.673,121.113 70.6766667,122.583667 70.336,124.647 C69.9953333,126.710333 69.6413333,128.409333 69.274,129.744 C68.9073333,131.079333 68.7466667,132.133 68.792,132.905 C68.8373333,133.677 68.864,134.130333 68.872,134.265" id="STROKE_60e8b00c-4eb9-4524-8b4f-6a7aeb8f29cc" stroke-width="1.165"></path>
            <path d="M97.16,114.146 C97.0546667,114.094 96.902,114.087 96.702,114.125 C96.5026667,114.163 96.3376667,114.219333 96.207,114.294 C96.0763333,114.368 95.913,114.552333 95.717,114.847 C95.521,115.141667 95.2213333,115.991 94.818,117.395 C94.414,118.799 93.99,120.299667 93.546,121.897 C93.102,123.494333 92.926,125.812333 93.018,128.851 C93.1106667,131.890333 93.1556667,133.473 93.153,133.599" id="STROKE_218ad7a6-5553-4fc8-9a15-2345c657c199" stroke-width="1.362"></path>
            <path d="M93.103,118.409 C93.0843333,118.453667 92.9526667,118.464667 92.708,118.442 C92.464,118.42 92.2593333,118.431333 92.094,118.476 C91.9293333,118.521333 91.752,118.689667 91.562,118.981 C91.3726667,119.273 91.092,119.775 90.72,120.487 C90.348,121.199667 90.0136667,122.613333 89.717,124.728 C89.421,126.843333 89.2426667,128.831667 89.182,130.693 C89.122,132.554333 89.1943333,133.874 89.399,134.652 C89.6043333,135.429333 89.7283333,135.838 89.771,135.878" id="STROKE_8da0410c-e8f3-4014-97e0-d5e7f57dcbf2" stroke-width="1.104"></path>
            <path d="M87.538,120.668 C87.5566667,120.619333 87.318,120.987 86.822,121.771 C86.326,122.555 85.965,123.382333 85.739,124.253 C85.513,125.123667 85.342,126.399667 85.226,128.081 C85.11,129.762333 85.182,131.645333 85.442,133.73 C85.7026667,135.814667 85.83,136.907 85.824,137.007" id="STROKE_1df395c5-1a16-4e6d-b116-742660f6e478" stroke-width="1.322"></path>
            <path d="M81.022,120.002 C81.06,119.866667 81.0713333,119.692333 81.056,119.479 C81.0406667,119.265667 81.034,119.179333 81.036,119.22 C81.0386667,119.260667 81.0353333,119.240667 81.026,119.16 C81.066,119.248 81.2176667,119.918 81.481,121.17 C81.745,122.422667 81.705,124.178333 81.361,126.437 C81.0176667,128.696333 80.7226667,130.402667 80.476,131.556 C80.2293333,132.709333 80.0323333,133.565 79.885,134.123 C79.7376667,134.681 79.572,135.219667 79.388,135.739 C79.2033333,136.257667 79.0093333,136.703667 78.806,137.077 C78.6026667,137.450333 78.469,137.668333 78.405,137.731" id="STROKE_8dddcba5-b3eb-4672-98f0-0169b380a2a9" stroke-width="1.241"></path>
            <path d="M74.151,118.184 C74.1496667,118.175333 74.147,118.156333 74.143,118.127 C74.259,118.176333 74.4706667,118.697 74.778,119.689 C75.0853333,120.681 75.3363333,121.710667 75.531,122.778 C75.7263333,123.845333 75.482,125.57 74.798,127.952 C74.1146667,130.334 73.5673333,132.174667 73.156,133.474 C72.7446667,134.773333 72.4716667,135.709667 72.337,136.283 C72.203,136.856333 72.0406667,137.637333 71.85,138.626 C71.66,139.614667 71.5883333,140.457 71.635,141.153 C71.6823333,141.849667 71.706,142.271333 71.706,142.418" id="STROKE_ee2cb387-d01e-4fa8-8058-57a8f7e1edd3" stroke-width="1.529"></path>
            <path d="M71.175,117.69 C71.2276667,117.502667 71.1606667,118.600667 70.974,120.984 C70.7873333,123.367333 70.67,125.432333 70.622,127.179 C70.5733333,128.926333 70.4443333,130.513667 70.235,131.941 C70.025,133.368333 69.78,134.600333 69.5,135.637 C69.22,136.673667 69.0323333,137.319667 68.937,137.575" id="STROKE_74ce281f-b58b-44f6-ab28-3bbd55461d25" stroke-width="0.897"></path>
            <path d="M58.907,114.138 C58.813,114.054667 58.919,114.553333 59.225,115.634 C59.5316667,116.714667 59.8183333,118.033 60.085,119.589 C60.351,121.144333 60.5283333,122.45 60.617,123.506 C60.705,124.562 60.702,125.694667 60.608,126.904 C60.5133333,128.112667 60.2576667,129.536 59.841,131.174 C59.4243333,132.812 59.066,134.043 58.766,134.867 C58.466,135.691 58.135,136.656333 57.773,137.763 C57.411,138.869667 57.1356667,139.804333 56.947,140.567 C56.759,141.329667 56.6393333,142.114 56.588,142.92 C56.5366667,143.726667 56.495,144.222667 56.463,144.408" id="STROKE_e1a3e889-4c1c-47af-b96d-986f3ea34e9d" stroke-width="1.271"></path>
            <path d="M82.71,121.501 C82.714,121.529667 83.078,121.030667 83.802,120.004 C83.9166667,120.116667 83.6643333,121.219333 83.045,123.312 C82.425,125.404 81.9236667,127.41 81.541,129.33 C81.1583333,131.249333 80.924,132.969667 80.838,134.491 C80.752,136.011667 80.7403333,137.313667 80.803,138.397 C80.8656667,139.480333 80.9176667,140.536333 80.959,141.565 C81.001,142.593667 81.5026667,143.495333 82.464,144.27 C83.4253333,145.044667 84.003,145.483 84.197,145.585" id="STROKE_93681beb-e851-4166-8988-1fd6f31959c6" stroke-width="1.24"></path>
            <path d="M89.163,126.607 C89.1616667,126.596333 89.1603333,126.586 89.159,126.576 C88.917,126.598667 88.7986667,127.025333 88.804,127.856 C88.8093333,128.686 88.8576667,130.101 88.949,132.101 C89.0396667,134.100333 89.215,135.640333 89.475,136.721 C89.7343333,137.801 89.8913333,138.418333 89.946,138.573" id="STROKE_6116faa3-3b5b-415d-a3a9-702587d212d4" stroke-width="1.657"></path>
            <path d="M94.078,116.874 C94.0613333,116.932667 94.323,117.237333 94.863,117.788 C95.403,118.338667 95.8773333,119.158 96.286,120.246 C96.6946667,121.334667 96.9203333,122.467 96.963,123.643 C97.0056667,124.819 96.9706667,125.688333 96.858,126.251 C96.7453333,126.813667 96.5086667,127.833333 96.148,129.31 C95.7873333,130.786667 95.3356667,132.738667 94.793,135.166 C94.2503333,137.594 93.9393333,138.926333 93.86,139.163" id="STROKE_f41500b5-686b-414c-a238-93e971bd6c9b" stroke-width="1.112"></path>
        </g>
        <path d="M84.0576172,96.4941406 C105.201977,93.004246 93.5632964,94.0228153 119.053711,94.5600586" id="Path-4" stroke="#000000"></path>
        <path d="M119.143066,94.6723633 C148.888522,94.2127779 135.684602,92.7251921 158.921875,97.2519531" id="Path-5" stroke="#000000"></path>
    </g>
</svg>